<?xml version="1.0" encoding="UTF-8"?><svg xmlns="http://www.w3.org/2000/svg" xmlns:xlink="http://www.w3.org/1999/xlink"><symbol viewBox="0 0 20 20" id="account-circle" xmlns="http://www.w3.org/2000/svg"><path d="M10 0C4.48 0 0 4.48 0 10s4.48 10 10 10 10-4.48 10-10S15.52 0 10 0zm0 3c1.66 0 3 1.34 3 3s-1.34 3-3 3-3-1.34-3-3 1.34-3 3-3zm0 14.2a7.2 7.2 0 01-6-3.22c.03-1.99 4-3.08 6-3.08 1.99 0 5.97 1.09 6 3.08a7.2 7.2 0 01-6 3.22z"/></symbol><symbol fill="none" viewBox="0 0 22 19" id="alert-error" xmlns="http://www.w3.org/2000/svg"><path d="M0 19h22L11 0zm12-3h-2v-2h2zm0-4h-2V8h2z"/></symbol><symbol viewBox="0 0 20 20" id="alert-warning-filled" xmlns="http://www.w3.org/2000/svg"><path d="M10 0C4.48 0 0 4.48 0 10s4.48 10 10 10 10-4.48 10-10S15.52 0 10 0zm1 15H9v-2h2zm0-4H9V5h2z"/></symbol><symbol viewBox="0 0 20 20" id="alert-warning-outline" xmlns="http://www.w3.org/2000/svg"><path d="M9 13h2v2H9zm0-8h2v6H9zm.99-5C4.47 0 0 4.48 0 10s4.47 10 9.99 10C15.52 20 20 15.52 20 10S15.52 0 9.99 0zM10 18c-4.42 0-8-3.58-8-8s3.58-8 8-8 8 3.58 8 8-3.58 8-8 8z"/></symbol><symbol viewBox="0 0 12 7.41" id="arrow-down" xmlns="http://www.w3.org/2000/svg"><path d="M1.41 0L6 4.58 10.59 0 12 1.41l-6 6-6-6z"/></symbol><symbol viewBox="0 0 7.41 12" id="arrow-left" xmlns="http://www.w3.org/2000/svg"><path d="M7.41 10.59L2.83 6l4.58-4.59L6 0 0 6l6 6z"/></symbol><symbol viewBox="0 0 7.41 12" id="arrow-right" xmlns="http://www.w3.org/2000/svg"><path d="M0 10.59L4.58 6 0 1.41 1.41 0l6 6-6 6z"/></symbol><symbol viewBox="0 0 12 7.41" id="arrow-up" xmlns="http://www.w3.org/2000/svg"><path d="M1.41 7.41L6 2.83l4.59 4.58L12 6 6 0 0 6z"/></symbol><symbol viewBox="0 0 14 18" id="bookmark-filled" xmlns="http://www.w3.org/2000/svg"><path d="M12 0H2C.9 0 .01.9.01 2L0 18l7-3 7 3V2c0-1.1-.9-2-2-2z"/></symbol><symbol viewBox="0 0 14 18" id="bookmark-outline" xmlns="http://www.w3.org/2000/svg"><path d="M12 0H2C.9 0 .01.9.01 2L0 18l7-3 7 3V2c0-1.1-.9-2-2-2zm0 15l-5-2.18L2 15V2h10z"/></symbol><symbol viewBox="0 0 20 20" id="carousel-indicator" xmlns="http://www.w3.org/2000/svg"><rect width="20" height="20" rx="10"/></symbol><symbol viewBox="0 0 24 24" id="close" xmlns="http://www.w3.org/2000/svg"><path d="M19 6.41L17.59 5 12 10.59 6.41 5 5 6.41 10.59 12 5 17.59 6.41 19 12 13.41 17.59 19 19 17.59 13.41 12 19 6.41z"/></symbol><symbol viewBox="0 0 8.308 16" id="facebook" xmlns="http://www.w3.org/2000/svg"><path d="M5.394 16V8.702h2.442l.375-2.846H5.394V4.039c0-.818.221-1.385 1.404-1.385h1.51V.115C8.048.077 7.154 0 6.115 0 3.942 0 2.452 1.327 2.452 3.76v2.096H0v2.846h2.452V16z"/></symbol><symbol viewBox="0 0 20 20" id="language" xmlns="http://www.w3.org/2000/svg"><path d="M9.99 0C4.47 0 0 4.48 0 10s4.47 10 9.99 10C15.52 20 20 15.52 20 10S15.52 0 9.99 0zm6.93 6h-2.95a15.65 15.65 0 00-1.38-3.56A8.03 8.03 0 0116.92 6zM10 2.04c.83 1.2 1.48 2.53 1.91 3.96H8.09C8.52 4.57 9.17 3.24 10 2.04zM2.26 12C2.1 11.36 2 10.69 2 10s.1-1.36.26-2h3.38c-.08.66-.14 1.32-.14 2s.06 1.34.14 2zm.82 2h2.95c.32 1.25.78 2.45 1.38 3.56A7.987 7.987 0 013.08 14zm2.95-8H3.08a7.987 7.987 0 014.33-3.56A15.65 15.65 0 006.03 6zM10 17.96c-.83-1.2-1.48-2.53-1.91-3.96h3.82c-.43 1.43-1.08 2.76-1.91 3.96zM12.34 12H7.66c-.09-.66-.16-1.32-.16-2s.07-1.35.16-2h4.68c.09.65.16 1.32.16 2s-.07 1.34-.16 2zm.25 5.56c.6-1.11 1.06-2.31 1.38-3.56h2.95a8.03 8.03 0 01-4.33 3.56zM14.36 12c.08-.66.14-1.32.14-2s-.06-1.34-.14-2h3.38c.16.64.26 1.31.26 2s-.1 1.36-.26 2z"/></symbol><symbol viewBox="0 0 13.125 5" id="letterboxd" xmlns="http://www.w3.org/2000/svg"><path d="M4.84 2.5c0 .473-.128.915-.349 1.293-.22-.378-.348-.82-.348-1.293s.127-.915.348-1.293c.221.377.348.82.348 1.293zm3.794-1.293C8.21.484 7.441 0 6.563 0S4.915.484 4.49 1.207A2.404 2.404 0 002.42 0C1.083 0 0 1.12 0 2.5S1.083 5 2.42 5c.878 0 1.647-.484 2.071-1.207C4.915 4.516 5.684 5 6.562 5s1.648-.484 2.072-1.207A2.404 2.404 0 0010.705 5c1.337 0 2.42-1.12 2.42-2.5S12.042 0 10.705 0c-.878 0-1.647.484-2.071 1.207zm0 0c.22.377.348.82.348 1.293s-.127.915-.348 1.293c-.221-.378-.348-.82-.348-1.293s.127-.915.348-1.293z" clip-rule="evenodd" fill="#fff" fill-rule="evenodd"/></symbol><symbol viewBox="0 0 18 18" id="link" xmlns="http://www.w3.org/2000/svg"><path d="M7.627 10.373c.4.38.4 1.003 0 1.383a.981.981 0 01-1.383 0 4.872 4.872 0 010-6.885l3.448-3.447a4.872 4.872 0 016.884 0 4.872 4.872 0 010 6.885l-1.45 1.45a6.73 6.73 0 00-.39-2.356l.457-.467a2.903 2.903 0 000-4.13 2.903 2.903 0 00-4.129 0L7.627 6.245a2.904 2.904 0 000 4.13zm2.746-4.129a.981.981 0 011.383 0 4.872 4.872 0 010 6.885l-3.447 3.447a4.872 4.872 0 01-6.885 0 4.872 4.872 0 010-6.885l1.451-1.45c-.01.798.117 1.596.39 2.366l-.458.457a2.903 2.903 0 000 4.13 2.903 2.903 0 004.129 0l3.437-3.438a2.903 2.903 0 000-4.129.948.948 0 010-1.383z"/></symbol><symbol viewBox="0 0 17.143 16.384" id="linkedin" xmlns="http://www.w3.org/2000/svg"><path d="M2.054 3.817c1.283 0 2.087-.848 2.075-1.909C4.12.827 3.338 0 2.077 0 .826 0 0 .826 0 1.909c0 1.06.792 1.908 2.031 1.908zm7.544 12.567v-6.172c0-.335.034-.658.123-.904.268-.658.87-1.34 1.886-1.34 1.328 0 1.864 1.016 1.864 2.5v5.916h3.672v-6.34c0-3.392-1.808-4.977-4.23-4.977-1.904 0-2.783 1.015-3.275 1.767l-.04.061V5.324H5.926l.001.018v.033c.004.141.013.628.017 2.059l.001.299v.16l.001.518V10.364c-.003 1.516-.008 3.48-.02 6.02zm-5.703 0V5.324H.212v11.06z"/></symbol><symbol viewBox="0 0 11 14" id="play-arrow" xmlns="http://www.w3.org/2000/svg"><path d="M0 0v14l11-7z"/></symbol><symbol viewBox="0 0 17.49 17.49" id="search" xmlns="http://www.w3.org/2000/svg"><path d="M12.5 11h-.79l-.28-.27A6.471 6.471 0 0013 6.5 6.5 6.5 0 106.5 13c1.61 0 3.09-.59 4.23-1.57l.27.28v.79l5 4.99L17.49 16zm-6 0C4.01 11 2 8.99 2 6.5S4.01 2 6.5 2 11 4.01 11 6.5 8.99 11 6.5 11z"/></symbol><symbol viewBox="0 0 17.589 14.286" id="twitter" xmlns="http://www.w3.org/2000/svg"><path d="M5.536 14.286c6.63 0 10.257-5.491 10.257-10.257 0-.156 0-.313-.011-.469a7.752 7.752 0 001.808-1.864c-.648.28-1.35.48-2.076.558A3.595 3.595 0 0017.099.268a7.096 7.096 0 01-2.288.87A3.596 3.596 0 0012.177 0a3.603 3.603 0 00-3.605 3.605c0 .279.033.558.089.826A10.247 10.247 0 011.228.659a3.578 3.578 0 00-.491 1.819c0 1.25.636 2.355 1.607 3.002a3.63 3.63 0 01-1.63-.458v.045a3.605 3.605 0 002.891 3.538 3.812 3.812 0 01-.949.123 4.54 4.54 0 01-.68-.056 3.611 3.611 0 003.37 2.5 7.22 7.22 0 01-4.475 1.54 7.45 7.45 0 01-.87-.045 10.187 10.187 0 005.535 1.619z"/></symbol></svg>