<?xml version="1.0" encoding="UTF-8"?>
<svg width="13.125" height="5" fill="none" version="1.1" viewBox="0 0 13.125 5" xmlns="http://www.w3.org/2000/svg">
 <path d="m4.8392 2.5c0 0.4731-0.1272 0.9155-0.34815 1.2927-0.22095-0.3772-0.34814-0.8196-0.34814-1.2927s0.12719-0.9155 0.34814-1.2927c0.22095 0.3772 0.34815 0.8196 0.34815 1.2927zm3.7948-1.2927c-0.424-0.72364-1.1931-1.2073-2.0715-1.2073s-1.6475 0.48367-2.0714 1.2073c-0.42391-0.72363-1.193-1.2073-2.0714-1.2073-1.3363 0-2.4196 1.1193-2.4196 2.5s1.0833 2.5 2.4196 2.5c0.87843 0 1.6475-0.4837 2.0714-1.2073 0.42395 0.7236 1.193 1.2073 2.0714 1.2073s1.6475-0.4837 2.0715-1.2073c0.4239 0.7236 1.193 1.2073 2.0714 1.2073 1.3363 0 2.4196-1.1193 2.4196-2.5s-1.0833-2.5-2.4196-2.5c-0.8784 0-1.6475 0.48366-2.0714 1.2073zm0 0c0.2209 0.3772 0.3481 0.8196 0.3481 1.2927s-0.1272 0.9155-0.3481 1.2927c-0.221-0.3772-0.3482-0.8196-0.3482-1.2927s0.1272-0.9155 0.3482-1.2927z" clip-rule="evenodd" fill="#fff" fill-rule="evenodd"/>
</svg>
