<?xml version="1.0" encoding="UTF-8"?>
<svg width="17.143" height="16.384"  version="1.1" viewBox="0 0 17.143 16.384" xmlns="http://www.w3.org/2000/svg">
 <path d="m2.0536 3.817c1.2835 0 2.0871-0.84822 2.0759-1.9085-0.01116-1.0826-0.79241-1.9085-2.0536-1.9085-1.25 0-2.0759 0.82589-2.0759 1.9085 0 1.0603 0.79241 1.9085 2.0312 1.9085zm7.5446 12.567v-6.1718c0-0.3349 0.0335-0.6585 0.1228-0.9041 0.2679-0.6584 0.8705-1.3392 1.8862-1.3392 1.3281 0 1.8638 1.0156 1.8638 2.5v5.9151h3.6719v-6.3392c0-3.3929-1.8081-4.9777-4.2299-4.9777-1.9039 0-2.7827 1.0147-3.275 1.7672l-0.04 0.0609 2e-4 -1.5714h-3.6718l6.099e-4 0.01821c8.01e-5 0.00262 1.701e-4 0.00555 2.601e-4 0.00882l6.399e-4 0.02387c0.00353 0.14146 0.01234 0.62813 0.01632 2.0593l7.299e-4 0.299c1.101e-4 0.052 2.1e-4 0.1051 3.099e-4 0.1593l6.902e-4 0.5186c5e-5 0.0611 1.001e-4 0.1234 1.4e-4 0.1869l6e-5 0.8211c-3e-5 0.0735-6.99e-5 0.1483-1.2e-4 0.2244l-7.2e-4 0.721c-0.00203 1.5155-0.00761 3.4789-0.01892 6.0197zm-5.7031 0v-11.06h-3.683v11.06z" />
</svg>
