<?xml version="1.0" encoding="UTF-8"?>
<svg width="18" height="18"  version="1.1" viewBox="0 0 18 18" xmlns="http://www.w3.org/2000/svg">
 <path d="m7.627 10.373c0.3992 0.3798 0.3992 1.003 0 1.3827-0.3798 0.3798-1.003 0.3798-1.3827 0-1.8988-1.8988-1.8988-4.9856 0-6.8844l3.4472-3.4471c1.8988-1.8988 4.9856-1.8988 6.8845 0 1.8988 1.8988 1.8988 4.9857 0 6.8845l-1.4509 1.4509c0.0097-0.7984-0.1169-1.5969-0.3895-2.3565l0.4576-0.46738c1.1491-1.1393 1.1491-2.9894 0-4.1288-1.1393-1.149-2.9894-1.149-4.1287 0l-3.4374 3.4374c-1.149 1.1394-1.149 2.9894 0 4.1288zm2.746-4.1288c0.3798-0.37977 1.003-0.37977 1.3827 0 1.8989 1.8988 1.8989 4.9856 0 6.8846l-3.4471 3.4471c-1.8988 1.8988-4.9856 1.8988-6.8845 0-1.8988-1.8989-1.8988-4.9857 0-6.8845l1.4509-1.4509c-0.0097301 0.7984 0.11686 1.5969 0.38951 2.3662l-0.45767 0.4577c-1.149 1.1393-1.149 2.9894 0 4.1287 1.1393 1.1491 2.9895 1.1491 4.1288 0l3.4374-3.4374c1.149-1.1393 1.149-2.9894 0-4.1287-0.3992-0.3798-0.3992-1.003 0-1.3828z" />
</svg>
