<?xml version="1.0" encoding="UTF-8"?>
<svg width="17.589" height="14.286"  version="1.1" viewBox="0 0 17.589 14.286" xmlns="http://www.w3.org/2000/svg">
 <path d="m5.5357 14.286c6.6295 0 10.257-5.491 10.257-10.257 0-0.15625 0-0.3125-0.0111-0.46875 0.7031-0.51339 1.3169-1.1496 1.808-1.8638-0.6473 0.27902-1.3504 0.47991-2.0759 0.55804 0.7478-0.44643 1.317-1.1496 1.5848-1.9866-0.6919 0.41294-1.4732 0.71428-2.2879 0.87053-0.6585-0.70312-1.596-1.1384-2.6339-1.1384-1.9978 0-3.605 1.6183-3.605 3.6049 0 0.27902 0.0335 0.55804 0.0893 0.8259-2.991-0.15625-5.6585-1.5848-7.433-3.7723-0.3125 0.53572-0.49107 1.1496-0.49107 1.8192 0 1.25 0.63616 2.3549 1.6071 3.0022-0.59152-0.0223-1.1496-0.1897-1.6295-0.4576v0.0447c0 1.7522 1.2388 3.2031 2.8906 3.5379-0.30133 0.0781-0.625 0.1228-0.94866 0.1228-0.23437 0-0.45759-0.0223-0.6808-0.0558 0.45759 1.4286 1.7857 2.4665 3.3705 2.5-1.2388 0.971-2.7902 1.5402-4.4754 1.5402-0.30134 0-0.58036-0.0112-0.87054-0.0447 1.596 1.0268 3.4933 1.6183 5.5357 1.6183z" />
</svg>
